<svg width="500" height="500" viewBox="0 0 500 500" fill="none" xmlns="http://www.w3.org/2000/svg">
<rect width="500" height="500" fill="black"/>
<path d="M222.102 294.588V290.966C222.173 278.537 223.274 268.629 225.405 261.243C227.607 253.857 230.803 247.891 234.993 243.345C239.183 238.8 244.226 234.68 250.121 230.987C254.524 228.146 258.466 225.199 261.946 222.145C265.426 219.091 268.196 215.717 270.256 212.024C272.315 208.26 273.345 204.07 273.345 199.453C273.345 194.553 272.173 190.256 269.83 186.562C267.486 182.869 264.325 180.028 260.348 178.04C256.442 176.051 252.109 175.057 247.351 175.057C242.734 175.057 238.366 176.087 234.247 178.146C230.128 180.135 226.754 183.118 224.126 187.095C221.499 191.001 220.078 195.866 219.865 201.69H176.399C176.754 187.486 180.163 175.767 186.626 166.534C193.089 157.23 201.648 150.305 212.301 145.76C222.955 141.143 234.709 138.835 247.564 138.835C261.697 138.835 274.197 141.179 285.064 145.866C295.93 150.483 304.453 157.195 310.632 166.001C316.811 174.808 319.901 185.426 319.901 197.855C319.901 206.165 318.516 213.551 315.746 220.014C313.047 226.406 309.247 232.088 304.347 237.06C299.446 241.96 293.658 246.399 286.982 250.376C281.371 253.714 276.754 257.195 273.132 260.817C269.581 264.439 266.918 268.629 265.142 273.388C263.438 278.146 262.55 284.006 262.479 290.966V294.588H222.102ZM243.196 362.77C236.094 362.77 230.021 360.284 224.979 355.312C220.007 350.27 217.557 344.233 217.628 337.202C217.557 330.241 220.007 324.276 224.979 319.304C230.021 314.332 236.094 311.847 243.196 311.847C249.943 311.847 255.874 314.332 260.987 319.304C266.101 324.276 268.693 330.241 268.764 337.202C268.693 341.889 267.45 346.186 265.036 350.092C262.692 353.928 259.602 357.017 255.767 359.361C251.932 361.634 247.741 362.77 243.196 362.77Z" fill="white"/>
</svg>
